PathFileType	4	(X/Y/Z)	C:/Users/opensim2020/Desktop/walking_exp_matlab/subject06_walking12_straigt_02.trc	
DataRate	CameraRate	NumFrames	NumMarkers	Units	OrigDataRate	OrigDataStartFrame	OrigNumFrames	
100.00	100.00	5	48	mm	100.00	1520	215	
Frame#	Time	LFHD			RFHD			LBHD			RBHD			C7			T10			CLAV			STRN			RBAK			LSHO			LUPA			LELB			LFRM			LWRA			LWRB			LFIN			RSHO			RUPA			RELB			RFRM			RWRA			RWRB			RFIN			LASI			RASI			LPSI			RPSI			LTHI			LKNE			LTIB			LANK			LHEE			LTOE			RTHI			RKNE			RTIB			RANK			RHEE			RTOE			*39			*40			*41			*42			*43			*44			*45			*46			*47			
		X1	Y1	Z1	X2	Y2	Z2	X3	Y3	Z3	X4	Y4	Z4	X5	Y5	Z5	X6	Y6	Z6	X7	Y7	Z7	X8	Y8	Z8	X9	Y9	Z9	X10	Y10	Z10	X11	Y11	Z11	X12	Y12	Z12	X13	Y13	Z13	X14	Y14	Z14	X15	Y15	Z15	X16	Y16	Z16	X17	Y17	Z17	X18	Y18	Z18	X19	Y19	Z19	X20	Y20	Z20	X21	Y21	Z21	X22	Y22	Z22	X23	Y23	Z23	X24	Y24	Z24	X25	Y25	Z25	X26	Y26	Z26	X27	Y27	Z27	X28	Y28	Z28	X29	Y29	Z29	X30	Y30	Z30	X31	Y31	Z31	X32	Y32	Z32	X33	Y33	Z33	X34	Y34	Z34	X35	Y35	Z35	X36	Y36	Z36	X37	Y37	Z37	X38	Y38	Z38	X39	Y39	Z39	X40	Y40	Z40	X41	Y41	Z41	X42	Y42	Z42	X43	Y43	Z43	X44	Y44	Z44	X45	Y45	Z45	X46	Y46	Z46	X47	Y47	Z47	X48	Y48	Z48	

81	0.800	1485.07739	433.36075	1649.23608	1354.24048	445.23416	1635.04248	1497.17078	565.15973	1591.80750	1369.82837	575.98071	1584.19067	1444.15588	568.07141	1428.97717	1435.39636	591.13257	1100.27576	1433.80066	452.72565	1357.44348	1441.22510	407.22470	1181.56421	1378.80237	638.48584	1254.69861	1598.99976	501.38849	1389.09448	1676.56665	459.47452	1194.80981	1694.29456	427.61615	1088.21912	1711.17261	307.70218	1002.82239	1661.94385	183.96724	985.60052	1695.86230	213.44678	930.79572	1697.17053	124.12466	922.31573	1277.13708	518.81848	1385.17334	1203.25415	595.36377	1194.12146	1192.40833	609.39929	1073.21362	1173.10327	632.28137	955.34863	1192.23499	615.40662	801.30090	1162.77405	672.71606	823.25647	1154.81970	665.23260	738.79675	1538.57434	421.55447	933.60028	1318.31519	418.76270	949.25745	1506.51819	578.54950	969.00714	1337.62354	568.82281	974.16113	1590.94043	548.67920	631.33765	1570.71814	596.81989	472.77658	1575.05969	751.32050	263.68631	1538.98462	844.54437	115.74824	1498.69775	892.21045	120.09271	1523.40784	723.98114	38.84956	1255.49597	404.17642	627.12518	1288.60034	359.85114	512.79156	1284.31531	331.66714	248.76697	1325.88110	286.90729	70.08910	1374.02551	316.87650	41.57129	1326.54297	129.72552	58.08173	1433.69141	539.37659	1684.40869																								 
82	0.810	1483.84961	421.56589	1650.07629	1352.93176	432.95538	1636.00867	1495.39050	553.29327	1592.54834	1367.98206	563.52625	1584.95728	1442.33167	556.23737	1429.58179	1434.38733	578.37024	1100.20691	1432.25391	440.75507	1358.19189	1439.95801	395.03995	1182.18567	1377.01477	626.14117	1253.93066	1597.75684	489.68329	1389.21423	1674.53027	448.44354	1194.02283	1692.13000	418.11322	1086.96875	1708.80359	298.73221	1000.88062	1659.57410	175.10570	983.00024	1693.59143	204.95630	928.44873	1694.59314	115.58686	919.37634	1275.23669	506.62308	1385.37854	1201.44055	582.40100	1193.84241	1190.57544	595.91882	1072.82178	1171.70020	617.94873	954.75244	1190.70544	600.86212	800.89380	1161.11829	658.26526	822.67633	1153.07312	650.48584	738.34766	1537.81348	408.69635	933.66010	1317.42944	404.76718	949.65289	1505.51892	565.61609	969.01428	1336.31873	555.53229	975.56592	1589.35254	534.85925	630.50116	1568.86499	581.84625	471.72464	1574.56189	741.80627	266.91397	1540.13733	839.34100	121.79456	1500.15173	886.89014	128.14908	1523.44922	723.00513	38.91948	1255.00439	390.76108	629.29138	1286.69617	348.47263	514.19171	1281.62463	321.21542	250.50961	1324.28638	281.20096	69.37359	1372.42603	313.21146	43.26675	1324.53625	125.71751	53.90155	1432.01001	527.39716	1685.21301																								 
83	0.820	1482.60059	409.77133	1651.35962	1351.62354	420.55652	1637.34265	1493.52539	541.47241	1593.90979	1366.13196	551.20117	1586.38550	1440.57214	544.12604	1430.98743	1433.53357	565.84454	1100.87988	1430.80786	428.90573	1359.46057	1438.63354	383.00455	1183.44678	1375.02002	613.93225	1253.91016	1596.61572	477.80237	1389.90308	1672.48755	437.83368	1193.65442	1690.07373	408.83685	1086.06250	1706.21082	290.43311	998.88293	1657.24927	166.79839	979.87231	1691.29456	197.22267	925.50958	1692.08154	107.88637	915.60504	1273.39478	494.34552	1386.05090	1199.60754	569.08313	1193.93970	1188.75879	581.98126	1072.81726	1169.83276	603.71716	954.63898	1189.31116	585.66400	800.87561	1159.49268	643.14044	822.36914	1151.43225	634.87036	738.19305	1537.12988	396.02448	934.26837	1316.61072	390.90170	950.82666	1504.81982	552.70386	969.35858	1335.64233	542.42804	977.47827	1587.51208	520.55292	630.11432	1567.04333	565.34381	470.75009	1573.82239	731.58014	271.11908	1540.72046	833.29913	128.76843	1500.72375	880.21503	137.08540	1523.11133	721.68713	38.68914	1253.63416	378.25073	631.78241	1283.78662	337.43607	516.27441	1279.51099	312.04041	252.19638	1323.17102	278.94696	69.17606	1371.48645	311.53970	44.22102	1322.10425	123.87376	48.94231	1430.34229	515.22247	1686.51953																								 
84	0.830	1481.35083	397.70032	1652.72803	1350.33191	407.99274	1638.76318	1491.96997	529.94293	1595.72192	1364.20056	538.82727	1588.20337	1438.94775	531.93817	1432.87317	1432.74023	553.58081	1102.24988	1429.45264	417.11035	1361.11877	1437.47510	370.96069	1185.10938	1373.04163	601.79639	1254.90088	1595.44006	465.64874	1391.08105	1670.35510	427.63565	1193.97815	1687.63086	399.74835	1085.73706	1703.84790	282.50223	996.69122	1654.95300	159.16988	976.11591	1688.74011	190.21141	922.06665	1689.73157	101.20979	911.10101	1271.71936	482.00058	1387.22461	1197.87439	555.41748	1194.43689	1187.07361	567.58270	1073.23438	1168.37170	588.39484	954.83636	1187.97815	569.85950	801.35492	1157.82385	627.32428	822.45917	1149.85986	618.50049	738.43359	1536.32874	383.64026	935.38257	1315.95886	377.16721	952.98041	1504.25586	539.87372	970.04163	1335.31616	529.57764	979.81439	1585.63062	505.72980	630.07709	1565.24756	547.69659	470.08658	1572.57788	720.49884	276.34949	1540.72803	826.04590	136.58606	1500.76892	872.13727	147.11246	1523.05554	721.05505	38.80774	1251.41113	366.52234	634.21106	1281.50024	326.05222	518.67889	1277.62805	305.74261	252.96542	1322.81311	278.62628	69.39938	1370.92383	311.26974	44.58875	1321.24609	123.29003	45.93304	1428.66113	502.83826	1688.19360																								 
85	0.840	1480.08594	385.62698	1654.25061	1348.96436	395.46362	1640.27136	1490.20959	518.13806	1597.70081	1362.34521	526.47900	1590.15039	1437.47583	519.91071	1434.81616	1431.86340	541.57092	1104.14136	1428.14758	405.27295	1362.82202	1436.39734	358.91364	1186.95544	1371.03992	589.64301	1256.70105	1594.16797	453.47183	1392.81763	1668.24841	417.66306	1194.83899	1684.85535	390.76843	1086.16431	1701.26526	275.14713	994.73303	1652.58887	152.31464	971.60522	1686.61963	184.53473	918.39874	1687.54846	95.52895	905.75348	1270.23071	469.59671	1388.76733	1196.23853	541.52307	1195.30347	1185.46228	552.70721	1074.08545	1166.61499	573.03864	955.62939	1186.57727	553.36432	802.06531	1156.23376	610.67999	822.90210	1148.23840	601.54254	738.96039	1535.24121	371.31506	936.95062	1315.48828	363.86221	955.91138	1503.69360	527.07922	971.11285	1335.12170	517.06903	982.34979	1583.88306	490.28806	630.18976	1563.91602	528.90503	469.52585	1571.37378	708.06836	282.03015	1540.24500	817.50024	145.27422	1499.37366	861.87976	157.72446	1522.57080	719.99762	38.91754	1249.47595	355.31213	636.60107	1279.87683	314.84674	520.74542	1276.58179	301.62244	253.61659	1322.82349	277.39865	69.74379	1370.41150	310.62091	45.05017	1321.73218	122.29200	44.52717	1426.91968	490.43127	1690.01257																								 
